# xmcd
#
# Track frame offsets:
#       150
#       16995
#       34345
#
# Disc length: 1115 seconds
#
# Revision: 0
# Processed by: cddbd v1.4PL0 Copyright (c) Steve Scherf et al.
# Submitted via: CD-DA_X-Tractor v0.21
#
DISCID=1c045903
DTITLE=Gloria Gaynor - Last night
DYEAR=1900
DGENRE=
TTITLE0=Last night (Dave Sears Radio Mix)
TTITLE1=Last night (Steve Anderson Radio Mix)
TTITLE2=Last night (Steve Amderson Mardi Gras Mix)
EXTD=
EXTT0=
EXTT1=
EXTT2=
PLAYORDER=
